#!OML:ASF I:\Actors\actors\Patient Classification 1\Patient 1\Session 1\Subject1.ASF
:FULLY-SPECIFIED
:DEGREES
687
root -0.382449 17.6082 7.41909 8.2678 -1.23962 -7.92489
lowerback 8.44539 2.50371 8.39509
upperback -8.3633 4.58536 -0.716544
thorax -13.3028 1.31672 -6.38491
lowerneck -1.58232 -7.60529 -3.36434
upperneck -1.81052 -10.132 15.8391
head 0.749292 -5.04217 5.09804
rclavicle 3.24516e-014 1.11319e-014
rhumerus 36.2478 20.3195 -43.1144
rradius 125.368
rwrist -9.74128
rhand -3.38621 -51.4655
rfingers 7.12502
rthumb 22.3433 -440.194
lclavicle 3.24516e-014 1.11319e-014
lhumerus -51.5963 26.5507 59.2914
lradius 107.633
lwrist 58.2189
lhand -44.7679 0.489864
lfingers 7.12502
lthumb -17.5603 29.7168
rfemur -1.38685 25.9914 25.9127
rtibia 0.587707
rfoot -11.712 -23.4842
rtoes 5.73681
lfemur 6.66559 -43.6628 -14.771
ltibia -4.76769
lfoot -16.7348 49.7661
ltoes 6.89748
688
root -0.382984 17.608 7.4107 8.29612 -1.27026 -7.87421
lowerback 8.43838 2.50174 8.23441
upperback -8.31126 4.55901 -0.680171
thorax -13.252 1.32685 -6.24674
lowerneck -1.64574 -7.55548 -3.35618
upperneck -0.530554 -10.2276 15.6246
head 1.12899 -5.03144 4.998
rclavicle 3.37934e-015 -2.38542e-015
rhumerus 35.4626 21.3025 -43.7086
rradius 125.51
rwrist -9.53773
rhand -3.44733 -51.5728
rfingers 7.12502
rthumb 22.2846 -440.308
lclavicle 3.37934e-015 -2.38542e-015
lhumerus -51.58 26.5781 59.3709
lradius 107.627
lwrist 58.1218
lhand -44.7734 0.545163
lfingers 7.12502
lthumb -17.5656 29.7716
rfemur -1.47034 26.0564 25.8184
rtibia 0.602534
rfoot -11.7318 -23.5152
rtoes 5.53828
lfemur 6.62867 -43.8644 -14.8242
ltibia -4.74614
lfoot -16.8669 49.9421
ltoes 7.15347
689
root -0.381926 17.6082 7.40289 8.29392 -1.30293 -7.78721
lowerback 8.46706 2.50326 8.0507
upperback -8.26721 4.53588 -0.662461
thorax -13.2321 1.33711 -6.1203
lowerneck -1.73658 -7.54268 -3.35271
upperneck 0.757256 -10.3739 15.4537
head 1.5239 -5.04439 4.91017
rclavicle 4.39314e-014 5.56597e-015
rhumerus 34.574 22.0671 -44.5064
rradius 125.866
rwrist -10.4211
rhand -3.09083 -51.5927
rfingers 7.12502
rthumb 22.6268 -440.286
lclavicle 4.39314e-014 5.56597e-015
lhumerus -51.613 26.4925 59.4509
lradius 107.632
lwrist 58.1032
lhand -45.0151 0.255891
lfingers 7.12502
lthumb -17.7981 29.4614
rfemur -1.5218 26.011 25.6909
rtibia 0.58988
rfoot -11.5434 -23.5146
rtoes 4.73344
lfemur 6.58765 -43.8998 -14.9201
ltibia -4.7032
lfoot -16.9939 49.9513
ltoes 7.32114
690
root -0.379798 17.6081 7.39509 8.30011 -1.29738 -7.759
lowerback 8.46076 2.50306 7.9954
upperback -8.20178 4.52118 -0.676149
thorax -13.1545 1.34115 -6.09833
lowerneck -1.8674 -7.56517 -3.156
upperneck 1.99096 -10.5595 15.1799
head 1.89826 -5.07776 4.75992
rclavicle -4.02539e-015 -7.95139e-015
rhumerus 33.6415 22.8868 -45.3133
rradius 126.139
rwrist -10.6023
rhand -3.11817 -51.8597
rfingers 7.12502
rthumb 22.6005 -440.557
lclavicle -4.02539e-015 -7.95139e-015
lhumerus -51.5317 26.3988 59.5638
lradius 107.616
lwrist 58.051
lhand -45.1289 0.411688
lfingers 7.12502
lthumb -17.9077 29.6072
rfemur -1.58147 25.9199 25.627
rtibia 0.552712
rfoot -11.3105 -23.5357
rtoes 3.95848
lfemur 6.47888 -43.7994 -14.8883
ltibia -4.66507
lfoot -16.9626 49.857
ltoes 7.19066
691
root -0.379613 17.6079 7.38738 8.30109 -1.2969 -7.79199
lowerback 8.44141 2.53161 8.02082
upperback -8.11752 4.55439 -0.696628
thorax -13.0339 1.363 -6.13524
lowerneck -1.75203 -7.60883 -2.67499
upperneck 2.8441 -10.7118 14.6467
head 2.08723 -5.12378 4.50691
rclavicle -2.25621e-014 -3.49861e-014
rhumerus 32.6799 23.7328 -45.9971
rradius 126.301
rwrist -9.66597
rhand -3.248 -51.9765
rfingers 7.12502
rthumb 22.4759 -440.689
lclavicle -2.25621e-014 -3.49861e-014
lhumerus -51.3241 26.2776 59.7647
lradius 107.569
lwrist 57.9962
lhand -45.0872 0.6498
lfingers 7.12502
lthumb -17.8676 29.849
rfemur -1.6251 25.9003 25.653
rtibia 0.549367
rfoot -11.2197 -23.5485
rtoes 3.75176
lfemur 6.40358 -43.6887 -14.7834
ltibia -4.65742
lfoot -16.9671 49.7538
ltoes 7.27799
692
root -0.380684 17.6075 7.38073 8.26432 -1.33167 -7.83336
lowerback 8.44028 2.55034 8.03326
upperback -8.04061 4.57934 -0.674936
thorax -12.9391 1.38289 -6.11832
lowerneck -1.74237 -7.61111 -2.97189
upperneck 4.11548 -10.8797 14.7742
head 2.49784 -5.15031 4.56264
rclavicle 4.47762e-014 -2.46493e-014
rhumerus 31.7067 24.6413 -46.6303
rradius 126.501
rwrist -8.6177
rhand -3.22334 -51.8601
rfingers 7.12502
rthumb 22.4996 -440.569
lclavicle 4.47762e-014 -2.46493e-014
lhumerus -51.2349 26.2253 59.9266
lradius 107.496
lwrist 57.9062
lhand -45.0541 0.481327
lfingers 7.12502
lthumb -17.8357 29.6834
rfemur -1.60491 25.9117 25.7224
rtibia 0.585804
rfoot -11.2258 -23.4986
rtoes 3.7665
lfemur 6.47824 -43.6288 -14.7482
ltibia -4.7417
lfoot -16.8702 49.7421
ltoes 7.22942
693
root -0.380626 17.6065 7.37395 8.22419 -1.33441 -7.84033
lowerback 8.44144 2.52015 8.00907
upperback -7.97967 4.53482 -0.642811
thorax -12.8791 1.37114 -6.05866
lowerneck -1.74138 -7.57109 -3.09084
upperneck 5.37473 -10.986 14.7576
head 2.88431 -5.14723 4.55225
rclavicle 6.4605e-016 -3.97569e-015
rhumerus 30.7863 25.4075 -47.4214
rradius 126.916
rwrist -9.16551
rhand -3.18849 -52.2064
rfingers 7.12502
rthumb 22.5331 -440.912
lclavicle 6.4605e-016 -3.97569e-015
lhumerus -51.2831 26.2517 59.9519
lradius 107.444
lwrist 57.8402
lhand -44.9943 0.289238
lfingers 7.12502
lthumb -17.7782 29.4966
rfemur -1.5756 25.9084 25.7486
rtibia 0.625815
rfoot -11.2696 -23.4667
rtoes 3.88118
lfemur 6.58204 -43.7125 -14.7968
ltibia -4.82075
lfoot -16.8103 49.8439
ltoes 7.05327
694
root -0.379844 17.6055 7.3661 8.22994 -1.31618 -7.80627
lowerback 8.44361 2.49329 7.94231
upperback -7.93219 4.48484 -0.652124
thorax -12.8352 1.35692 -6.02107
lowerneck -1.75607 -7.57088 -2.89233
upperneck 6.42292 -11.1081 14.4804
head 3.18189 -5.16183 4.41562
rclavicle -5.11871e-015 -2.06736e-014
rhumerus 29.8719 26.041 -48.2966
rradius 127.408
rwrist -10.148
rhand -3.09013 -53.3521
rfingers 7.12502
rthumb 22.6275 -442.046
lclavicle -5.11871e-015 -2.06736e-014
lhumerus -51.2481 26.2196 59.9561
lradius 107.407
lwrist 57.8373
lhand -45.0821 0.0133613
lfingers 7.12502
lthumb -17.8626 29.213
rfemur -1.62432 25.8352 25.6819
rtibia 0.633784
rfoot -11.2413 -23.431
rtoes 3.94898
lfemur 6.56733 -43.8486 -14.8454
ltibia -4.81222
lfoot -16.9178 49.9368
ltoes 7.21777
695
root -0.377748 17.6047 7.35822 8.27172 -1.30054 -7.77082
lowerback 8.4088 2.48653 7.90229
upperback -7.88426 4.46232 -0.663901
thorax -12.7618 1.35504 -6.00294
lowerneck -1.85321 -7.58238 -2.70191
upperneck 7.4532 -11.2353 14.1277
head 3.48568 -5.17894 4.25437
rclavicle 4.81059e-014 -3.97569e-015
rhumerus 28.9623 26.7638 -49.0824
rradius 127.63
rwrist -10.0923
rhand -3.06627 -53.4837
rfingers 7.12502
rthumb 22.6504 -442.175
lclavicle 4.81059e-014 -3.97569e-015
lhumerus -51.1767 26.1575 60.0006
lradius 107.388
lwrist 57.8246
lhand -45.2781 -0.151074
lfingers 7.12502
lthumb -18.0512 29.0313
rfemur -1.73432 25.6806 25.5799
rtibia 0.615191
rfoot -11.0759 -23.364
rtoes 3.43924
lfemur 6.46617 -43.9619 -14.8429
ltibia -4.77605
lfoot -17.0258 49.9997
ltoes 7.50792
696
root -0.376506 17.6039 7.35131 8.29593 -1.28011 -7.72555
lowerback 8.35747 2.46626 7.84633
upperback -7.81894 4.42043 -0.642058
thorax -12.6644 1.34924 -5.93335
lowerneck -2.16487 -7.53329 -2.53876
upperneck 8.76363 -11.3079 13.7073
head 3.90385 -5.15105 4.06849
rclavicle 1.32689e-014 -1.35174e-014
rhumerus 28.1096 27.5057 -49.843
rradius 127.784
rwrist -9.98071
rhand -3.13922 -53.5957
rfingers 7.12502
rthumb 22.5804 -442.295
lclavicle 1.32689e-014 -1.35174e-014
lhumerus -51.1729 26.1684 60.0358
lradius 107.377
lwrist 57.8211
lhand -45.365 -0.261114
lfingers 7.12502
lthumb -18.1348 28.9135
rfemur -1.79697 25.6296 25.4917
rtibia 0.591846
rfoot -10.9739 -23.3746
rtoes 3.02827
lfemur 6.44167 -44.2218 -14.9158
ltibia -4.73962
lfoot -17.2006 50.1959
ltoes 7.74694
697
root -0.377553 17.6031 7.34535 8.32689 -1.27031 -7.66834
lowerback 8.30845 2.43631 7.74288
upperback -7.76678 4.36113 -0.607084
thorax -12.5901 1.33838 -5.82073
lowerneck -2.53086 -7.50254 -2.6418
upperneck 10.1027 -11.4225 13.5483
head 4.3759 -5.13966 4.00046
rclavicle -1.97294e-014 1.74931e-014
rhumerus 27.2654 28.3142 -50.6091
rradius 127.888
rwrist -9.74031
rhand -3.26313 -53.596
rfingers 7.12502
rthumb 22.4614 -442.31
lclavicle -1.97294e-014 1.74931e-014
lhumerus -51.172 26.2536 60.0756
lradius 107.308
lwrist 57.7598
lhand -45.3463 -0.38303
lfingers 7.12502
lthumb -18.1168 28.7932
rfemur -1.84201 25.693 25.4031
rtibia 0.568446
rfoot -10.9876 -23.4596
rtoes 3.12508
lfemur 6.43856 -44.5226 -15.0129
ltibia -4.70726
lfoot -17.3987 50.4536
ltoes 7.92323
698
root -0.377504 17.602 7.33946 8.37034 -1.24463 -7.65402
lowerback 8.23149 2.41491 7.7334
upperback -7.72173 4.32172 -0.60011
thorax -12.4967 1.32767 -5.79339
lowerneck -2.8446 -7.46457 -2.58649
upperneck 11.3586 -11.516 13.3379
head 4.80394 -5.12119 3.89755
rclavicle 1.08835e-014 -4.77083e-015
rhumerus 26.3641 29.0706 -51.4309
rradius 128.015
rwrist -9.53478
rhand -3.34907 -53.7014
rfingers 7.12502
rthumb 22.3789 -442.425
lclavicle 1.08835e-014 -4.77083e-015
lhumerus -51.0962 26.2887 60.1303
lradius 107.219
lwrist 57.7308
lhand -45.3206 -0.306659
lfingers 7.12502
lthumb -18.0921 28.8719
rfemur -1.90187 25.773 25.3598
rtibia 0.55038
rfoot -11.0107 -23.5509
rtoes 3.24394
lfemur 6.36548 -44.6572 -14.9853
ltibia -4.69952
lfoot -17.4169 50.5543
ltoes 7.94051
699
root -0.37614 17.602 7.33333 8.37095 -1.21098 -7.67003
lowerback 8.18609 2.39334 7.80251
upperback -7.67283 4.29341 -0.616206
thorax -12.4112 1.31331 -5.83958
lowerneck -3.26064 -7.50018 -2.71336
upperneck 12.8166 -11.7475 13.2788
head 5.34655 -5.15649 3.85609
rclavicle 2.47487e-014 -1.27222e-014
rhumerus 25.3796 29.6965 -52.3681
rradius 128.085
rwrist -9.48174
rhand -3.4639 -53.9303
rfingers 7.12502
rthumb 22.2687 -442.667
lclavicle 2.47487e-014 -1.27222e-014
lhumerus -51.0064 26.2513 60.1957
lradius 107.178
lwrist 57.7846
lhand -45.3989 -0.334823
lfingers 7.12502
lthumb -18.1675 28.8367
rfemur -1.90932 25.9066 25.3819
rtibia 0.548141
rfoot -11.0628 -23.6666
rtoes 3.34572
lfemur 6.34542 -44.7242 -14.9479
ltibia -4.72232
lfoot -17.1571 50.6063
ltoes 7.5326
700
root -0.375261 17.6025 7.32811 8.33954 -1.22653 -7.65268
lowerback 8.20437 2.37123 7.78862
upperback -7.65056 4.26102 -0.623408
thorax -12.4017 1.29969 -5.83475
lowerneck -3.43313 -7.56794 -2.65295
upperneck 13.9498 -11.9617 13.0277
head 5.72756 -5.21149 3.73854
rclavicle 1.49089e-015 -5.56597e-015
rhumerus 24.3542 30.2466 -53.4015
rradius 128.09
rwrist -9.65709
rhand -3.48433 -54.2153
rfingers 7.12502
rthumb 22.2491 -442.955
lclavicle 1.49089e-015 -5.56597e-015
lhumerus -50.9899 26.2209 60.277
lradius 107.157
lwrist 57.79
lhand -45.5892 -0.757055
lfingers 7.12502
lthumb -18.3505 28.3974
rfemur -1.88328 26.0288 25.3775
rtibia 0.549539
rfoot -11.0953 -23.753
rtoes 3.32662
lfemur 6.37239 -44.6796 -14.9681
ltibia -4.77854
lfoot -16.7852 50.6137
ltoes 6.96158
